<?xml version="1.0" encoding="utf-8" ?>
<!-- Generated by AutoXChange 64-bit  V23.10.102 from Tailor Made Software -->
<!-- www.tailormade.com and www.cadviewer.com -->
<!DOCTYPE svg PUBLIC '-//W3C//DTD SVG 1.0//EN' 
'http://www.w3.org/TR/2001/REC-SVG-20010904/DTD/svg10.dtd'>
<svg id="tmsSVG72" contentScriptType="text/ecmascript" xmlns:xlink="http://www.w3.org/1999/xlink" zoomAndPan="magnify" 
contentStyleType="text/css" preserveAspectRatio="xMidYMid meet" 
width="1733.19" height="962" viewBox="0 0 1733.19 962" 
version="1.1" xmlns="http://www.w3.org/2000/svg" xmlns:cvjs="http://www.tailormade.com/" stroke-linecap="butt" stroke-linejoin="round" fill-rule="evenodd" >
<defs>
	<style id="cv_styles" type = "text/css">
	    <![CDATA[
	   #tmsSVG72 { background-color: white; opacity: 1.}
		:root {
		    --tmsMinLineWidth: 0.6;
		    --tmsMinDashLength: 0.6;
		    --tmsHLWidth: 0.6;
		    --tmsNumberOfLayouts: 1;
		    --tmsNumberOfSVGViewports: 0;
         --tmsMinFixedLineWidth: 0.6;
		    --tmsbPostFix: 0;
		}
		.tmsPoints {
		    fill: none;
		    stroke-width: var(--tmsMinLineWidth);
		    r: calc(var(--tmsMinLineWidth)/2.0);
		}
		.ZWhl {
		    stroke-width: var(--tmsHLWidth);
		}
		.ZW {
		    stroke-width: var(--tmsMinLineWidth);
		}
		.ZW6 {
		    stroke-width: calc(var(--tmsMinLineWidth)*6);
		}
		.ZW10 {
		    stroke-width: calc(var(--tmsMinLineWidth)*10);
		}
		.ZW20 {
		    stroke-width: calc(var(--tmsMinLineWidth)*20);
		}
		.ZW100 {
		    stroke-width: calc(var(--tmsMinLineWidth)*100);
		}
		.nZW {
		}
		.sLW_0_2{
		    stroke-width: calc(var(--tmsMinFixedLineWidth)*0.333333);
		}
		.sLW_0_6{
		    stroke-width: var(--tmsMinFixedLineWidth);
		}
		.hyperlinks:hover {
		    stroke-width: 3;
		}
		.hyperimage image{
			opacity: 0;
		}
		.hyperimage:hover image{
			opacity: 1;
		}
		.hyperimage:hover path{
			stroke-width: 3;
		}
		.hyperimage:visited{
			color: red;
		}
		.sLt_CENTER {
		    stroke-dasharray: calc(var(--tmsMinDashLength)*1.059992) calc(var(--tmsMinDashLength)*0.211998) calc(var(--tmsMinDashLength)*0.211998) calc(var(--tmsMinDashLength)*0.211998);
		}
	]]></style>
	</defs>
<metadata>
<text id="cadviewer_worldUnits">
{ "globalOrigin": { "x": 17.448914, "y" : -258.016026}, 
						"units": "in",
						"measurementType": "English",
						"lengthType": "Architectural",
						"lengthPrecision": 4,
						"blockUnitsFormat": "Undefined",
						"svgToWorldUnits": 0.851611,
						"worldToSVGUnits": 1.174245
}
</text>
<text id="cadviewer_drawingCoordinates">
{ "DWG": 
    { "lowerLeft": { "x": 17.448914, "y" : -258.016026}, 
      "upperRight": { "x": 1493.448914, "y" : 699.983974} 
    },
 "SVG": 
    { "lowerLeft": { "x": 383.407006, "y" : 962.000000}, 
      "upperRight": { "x": 2116.592994, "y" : 0.000000} 
    },
 "Drawing Height": 962
}
</text>
<text id="cadviewer_vqBuilding"></text>
<text id="cadviewer_vqFloor"></text>
<text id="cadviewer_multiPages">
{ "multiPages": 1, 
                   "currentPage":1,
                   "pages" : [
                        { "fileName":"f1098391845__ModelSpace", "pageName":"ModelSpace"}
                   ]
}
</text>
</metadata>
<g id="cv_main_drawing">
<g id="layer_WA_2D_EXT" class="layer_WA_2D_EXT"  cvjs:layerName="WA-EXT" cvjs:plottable="YES"
 cvjs:status="ON" visibility="visible">
<g id="cvclr_1" stroke="none" fill="#91A552" >
<path id="cv_2" opacity="0.5" d="M588.3,104.51v-63.41h24.66v-16.44h10.27v-3.52h15.85v-5.87h2.35v-8.22h-42.27v3.52h-21.43v16.44h-3.52v63.41h-7.34v-3.52h-25.83v8.22h2.35v5.87h7.93v3.52h36.99 Z "/>
<path id="cv_3" opacity="0.5" d="M467.06,83.37h-22.9v3.52h-8.22v8.22h2.35v5.87h34.64v-5.87h2.35v-8.22h-8.22v-3.52 Z "/>
<path id="cv_4" opacity="0.5" d="M284.17,187.88h36.4v-66.93h25.83v-16.44h10.27v-3.52h11.16v-5.87h2.35v-8.22h-38.75v3.52h-21.43v16.44h-3.52v66.93h-6.75v-3.52h-26.42v8.22h2.35v5.87h8.51v3.52 Z "/>
<path id="cv_5" opacity="0.5" d="M205.2,178.49v5.87h-34.64v-5.87h-2.35v-8.22h8.22v-3.52h22.9v3.52h8.22v8.22h-2.35 Z "/>
<path id="cv_6" opacity="0.5" d="M-0,623.82v-22.9h3.52v-8.22h8.22v2.35h5.87v34.64h-5.87v2.35h-8.22v-8.22h-3.52 Z "/>
<path id="cv_7" opacity="0.5" d="M1559.1,934.7h-22.9v-3.52h-8.22v-8.22h2.35v-5.87h34.64v5.87h2.35v8.22h-8.22v3.52 Z "/>
<path id="cv_8" opacity="0.5" d="M1633.08,922.96v8.22h35.23v-3.52h22.6v-16.44h3.52v-50.49h-8.22v2.35h-5.87v34.05h-24.66v16.44h-10.27v3.52h-9.98v5.87h-2.35 Z "/>
<path id="cv_9" opacity="0.5" d="M725.39,3.52h42.27v8.22h-2.35v5.87h-15.85v3.52h-39.92v-5.87h-2.35v-8.22h18.2v-3.52 Z "/>
<path id="cv_10" opacity="0.5" d="M1007.8,3.52h-42.27v8.22h2.35v5.87h15.85v3.52h39.92v-5.87h2.35v-8.22h-18.2v-3.52 Z "/>
<path id="cv_11" opacity="0.5" d="M1144.89,116.25v-75.15h-24.66v-16.44h-10.27v-3.52h-15.85v-5.87h-2.35v-8.22h42.27v3.52h21.43v16.44h3.52v75.15h7.34v-3.52h28.18v8.22h-2.35v5.87h-8.51v3.52h-38.75 Z "/>
<path id="cv_12" opacity="0.5" d="M1703.81,411.28v-14.38h-49.3v-28.18h25.83v-36.4h5.87v-2.35h8.22v35.23h15.27v3.52h16.44v22.6h3.52v50.49h-8.22v-2.35h-5.87v-28.18h-11.76 Z "/>
<path id="cv_13" opacity="0.5" d="M1703.83,728.03h-49.32v28.18h25.83v36.4h5.87v2.35h8.22v-35.23h15.27v-3.52h16.44v-22.6h3.52v-50.49h-8.22v2.35h-5.87v28.18h-11.74v14.38 Z "/>
<path id="cv_14" opacity="0.5" d="M1715.57,504.63v25.25h5.87v2.35h8.22v-8.22h3.52v-13.5h-3.52v-8.22h-8.22v2.35h-5.87 Z "/>
<path id="cv_15" opacity="0.5" d="M1419.66,724.51v35.23h-35.23v-35.23h35.23 Z "/>
<path id="cv_16" opacity="0.5" d="M1116.71,724.51h32.88v35.23h-32.88v-35.23 Z "/>
<path id="cv_17" opacity="0.5" d="M584.77,720.99h28.18v42.27h-28.18v-42.27 Z "/>
<path id="cv_18" opacity="0.5" d="M345.23,720.99v42.27h-28.18v-42.27h28.18 Z "/>
<path id="cv_19" opacity="0.5" d="M852.5,720.99h28.18v42.27h-28.18v-42.27 Z "/>
</g>
<g id="cvclr_20" stroke="#91A552" fill="none">
<path id="cv_21" class=" ZW" d="M306.48,962v-10.86h-6.75v3.52h-26.42v-8.22h2.35v-5.87h8.51v-3.52h36.4v24.95" />
<path id="cv_22" class=" ZW" d="M1412.62,962v-48.44h38.75v3.52h8.51v5.87h2.35v8.22h-28.18v-3.52h-7.34v34.35" />
</g>
<g id="cvclr_23" stroke="#000" fill="none">
<path id="cv_24" class="ZW" d="M38.75,759.74l0,49.32M52.84,806.71l-0,-50.49M38.75,809.05h8.22l0,-2.35h5.87M7.05,733.61l0,22.6h16.44l0,3.52h15.27M34.05,713.65h-16.44M3.52,692.51l0,41.1M17.61,713.65l0,-18.79M3.52,733.61h3.52M11.74,694.86l0,-2.35M17.61,694.86h-5.87M11.74,692.51h-8.22M34.05,728.03l0,-14.38M38.75,365.19l0,-49.32M52.84,318.22l-0,50.49M3.52,432.42l0,-41.1M34.05,396.89l0,14.38h-16.44l0,18.79M11.74,430.07l0,2.35h-8.22M17.61,430.07h-5.87M7.05,368.71h16.44M3.52,391.32h3.52l0,-22.6M23.48,368.71l0,-3.52h15.27M38.75,315.87h8.22l0,2.35h5.87M1694.44,759.74l0,35.23M1686.22,794.96l0,-2.35M1694.44,794.96h-8.22M1726.14,733.61l0,22.6M1680.34,792.62l0,-36.4M1686.22,792.62h-5.87M1726.14,756.21h-16.44M1709.7,759.74h-15.27M1709.7,756.21l0,3.52M1729.66,683.12l0,50.49M1715.57,713.65l0,-28.18M1703.83,713.65h11.74M1729.66,733.61h-3.52M1721.44,683.12h8.22M1721.44,685.47l0,-2.35M1715.57,685.47h5.87M1151.93,361.67h-35.23M850.15,0l0,3.52M883.03,0l0,3.52M850.15,17.61l0,23.48M835.77,17.61h14.38M835.77,11.74l0,5.87M833.42,11.74h2.35M833.42,3.52h16.73M833.42,3.52l0,8.22M883.03,17.61l0,23.48M897.42,11.74l0,5.87h-14.38M899.77,11.74h-2.35M899.77,3.52h-16.73M899.77,3.52l0,8.22M883.03,0h-32.88M1680.34,332.31l0,36.4M1694.44,365.19l0,-35.23M1729.66,441.81l0,-50.49M1715.57,411.28l0,28.18h5.87l0,2.35h8.22M1709.7,368.71l0,-3.52M1726.14,368.71h-16.44M1729.66,391.32h-3.52l0,-22.6M1709.7,365.19h-15.27M1694.44,329.96h-8.22M1686.22,332.31h-5.87M1686.22,329.96l0,2.35M883.03,41.1h-32.88M1109.96,21.14h-15.85l0,-5.87h-2.35l0,-8.22h42.27l0,3.52h21.43l0,16.44h3.52l0,75.15h7.34l0,-3.52h28.18l0,8.22h-2.35l0,5.87h-8.51l0,3.52M1144.89,41.1h-24.66l0,-16.44h-10.27l0,-3.52M1384.44,400.42h35.23M1384.44,400.42l0,-35.23M1412.62,132.69h-24.07l0,-16.44h-10.27l0,-3.52M1654.51,396.89l0,-28.18M1680.34,368.71h-25.83M1715.57,411.28h-11.76M1384.44,724.51h35.23M1419.66,759.74h-35.23l0,-35.23M1426.71,962l0,-34.35h7.34l0,3.52h28.18l0,-8.22h-2.35l0,-5.87h-8.51l0,-3.52h-38.75M1149.59,724.51l0,35.23M345.23,763.26h-28.18M1116.71,361.67l-0,38.75M623.23,21.14h15.85l0,-5.87h2.35l0,-8.22h-42.27l0,3.52h-21.43l0,16.44h-3.52l0,63.41h-7.34l0,-3.52h-25.83l0,8.22h2.35l0,5.87h7.93l0,3.52h36.99M588.3,41.1h24.66l0,-16.44h10.27l0,-3.52M444.16,83.37l0,3.52h-8.22l0,8.22h2.35l0,5.87h34.64l0,-5.87h2.35l0,-8.22h-8.22l0,-3.52h-22.9M965.52,3.52l0,8.22h2.35l0,5.87h15.85l0,3.52h39.92l0,-5.87h2.35l0,-8.22h-18.2l0,-3.52h-42.27M1183.64,116.25h-38.75M1419.66,365.19l0,35.23M1378.27,112.73h-10.57l0,-5.87h-2.35l0,-8.22h36.4l0,3.52h21.43l0,16.44h3.52l0,78.67h7.34l0,-3.52h28.18l0,8.22h-2.35l0,5.87h-8.51l0,3.52h-38.75M1412.62,132.69l0,78.67M1419.66,365.19h-35.23M1151.93,400.42h-35.23M1703.81,396.89h-49.3M1703.81,411.28l0,-14.38M1703.83,713.65l0,14.38M1654.51,728.03l0,28.18h25.83M1419.66,724.51l0,35.23M1412.62,962l0,-48.44M767.66,3.52l0,8.22h-2.35l0,5.87h-15.85l0,3.52h-39.92M356.68,100.99h11.16l0,-5.87h2.35l0,-8.22h-38.75l0,3.52h-21.43l0,16.44h-3.52l0,66.93h-6.75l0,-3.52h-26.42l0,8.22h2.35l0,5.87h8.51l0,3.52M320.57,187.88l0,-66.93h25.83l0,-16.44h10.27l0,-3.52M1149.59,759.74h-32.88l0,-35.23M306.48,962l0,-10.86h-6.75l0,3.52h-26.42l0,-8.22h2.35l0,-5.87h8.51l0,-3.52h36.4l0,24.95M1151.93,361.67l0,38.75M284.17,187.88h36.4M1703.83,728.03h-49.32M102.45,954.66h-37.58l0,-3.52h-22.6l0,-16.44h-3.52l0,-59.89h8.22l0,2.35h5.87l0,43.45h27.01l0,16.44h10.27l0,3.52h9.98l0,5.87h2.35l0,8.22M34.05,728.03h44.62l0,28.18M52.84,756.21h25.83M176.43,958.18l0,-3.52h-8.22l0,-8.22h2.35l0,-5.87h34.64l0,5.87h2.35l0,8.22h-8.22l0,3.52h-22.9M317.05,763.26l0,-42.27h28.18l0,42.27M-0,600.92h3.52l0,-8.22h8.22l0,2.35h5.87l0,34.64h-5.87l0,2.35h-8.22l0,-8.22h-3.52l0,-22.9M17.61,495.24h-5.87l0,-2.35h-8.22l0,8.22h-3.52l0,22.9h3.52l0,8.22h8.22l0,-2.35h5.87l0,-34.64M78.67,396.89l0,-28.18M52.84,368.71h25.83M34.05,396.89h44.62M345.23,361.67h-28.18l0,42.27h28.18l0,-42.27M101.28,170.27h-36.4l0,3.52h-22.6l0,16.44h-3.52l0,59.89h8.22l0,-2.35h5.87l0,-43.45h25.83l0,-16.44h10.27l0,-3.52h9.98l0,-5.87h2.35l0,-8.22M205.2,184.36h-34.64l0,-5.87h-2.35l0,-8.22h8.22l0,-3.52h22.9l0,3.52h8.22l0,8.22h-2.35l0,5.87M612.96,763.26h-28.18M612.96,720.99l0,42.27M584.77,763.26l0,-42.27h28.18M880.68,720.99l0,42.27h-28.18l0,-42.27h28.18M1116.71,724.51h32.88M1633.08,931.18h35.23l0,-3.52h22.6l0,-16.44h3.52l0,-50.49h-8.22l0,2.35h-5.87l0,34.05h-24.66l0,16.44h-10.27l0,3.52h-9.98l0,5.87h-2.35l0,8.22M1536.21,934.7l0,-3.52h-8.22l0,-8.22h2.35l0,-5.87h34.64l0,5.87h2.35l0,8.22h-8.22l0,3.52h-22.9M1268.48,95.11l0,3.52h-8.22l0,8.22h2.35l0,5.87h34.64l0,-5.87h2.35l0,-8.22h-8.22l0,-3.52h-22.9M584.77,361.67l0,42.27h28.18l0,-42.27h-28.18M852.5,403.94h28.18l0,-42.27M852.5,361.67l0,42.27M880.68,361.67h-28.18M709.54,21.14l0,-5.87h-2.35l0,-8.22h18.2l0,-3.52h42.27M1633.08,193.75h35.23l0,3.52h22.6l0,16.44h3.52l0,50.49h-8.22l0,-2.35h-5.87l0,-34.05h-24.66l0,-16.44h-10.27l0,-3.52h-9.98l0,-5.87h-2.35l0,-8.22M1729.66,614.42l0,8.22h-8.22l0,-2.35h-5.87l-0,-25.25h5.87l0,-2.35h8.22l0,8.22h3.52l0,13.5h-3.52M1721.44,532.23h8.22l0,-8.22h3.52l0,-13.5h-3.52l0,-8.22h-8.22l0,2.35h-5.87l-0,25.25M1536.21,190.23l0,3.52h-8.22l0,8.22h2.35l0,5.87h34.64l0,-5.87h2.35l0,-8.22h-8.22l0,-3.52h-22.9M588.3,104.51l0,-63.41M1144.89,116.25l0,-75.15" />
</g>
<g style="font-family: arial, helvetica, sans-serif" stroke="none" fill="#7F0000">
<g font-size="86.580000" stroke="none" fill="#7F0000">
<text id="cv_25" transform="scale(1.111111 1) translate(311.97 769.6) rotate(330) " >For Demonstration Purposes Only</text>
<text id="cv_26" transform="scale(1.111111 1) translate(623.95 769.6) rotate(330) " >Tailor Made Software, Ltd</text>
</g>
</g>
</g>
<g id="layer_WA" class="layer_WA"  cvjs:layerName="WA" cvjs:plottable="YES"
 cvjs:status="ON" visibility="visible">
<g id="cvclr_27" stroke="#FF7F00" fill="none">
<path id="cv_28" class="ZW" d="M78.67,742.12H239.55M232.5,735.08h7.05M239.55,742.12l0,-7.05M281.82,742.12l0,-7.05M288.86,735.08h-7.05M317.05,742.12h-35.23M232.5,389.85h7.05l0,-7.05M274.77,389.85l0,-7.05M288.86,389.85h-14.09M974.04,644.66h-16.44M974.04,649.36h-16.44M890.08,649.36h25.25l0,-4.7M957.6,649.36l0,-4.7M974.04,557.08h4.7M978.73,562.46l0,-5.38M974.04,588.3l0,-31.21M317.05,763.26l0,-21.14M974.04,644.66l0,-14.09M820.5,644.66h94.82M974.04,486.63h4.7M978.73,480.27l0,6.36M974.04,486.63l0,-6.36h-15.85M196.69,382.8h42.86M317.05,382.8h-42.27M584.77,749.17H345.23M605.91,782.63H436.82M612.96,775.59H443.86M584.77,756.21H443.86M644.95,644.66h-92.18M595.34,651.71h-42.57M584.77,375.76H345.23M584.77,368.71H345.23M644.95,480.27h-92.18M595.34,473.22h-42.57M232.5,691.02L232.5,504.93M327.61,720.99l0,-69.28M334.66,720.99l0,-69.28M288.86,735.08l0,-90.42M295.91,735.08l0,-83.37M185.53,682.24l0,-64.58M225.46,735.08H78.67M232.44,742.12H78.67M38.75,759.74l0,49.32M52.84,806.71l0,-50.49M38.75,809.05h8.22l0,-2.35h5.87M7.05,733.61l0,22.6h16.44l0,3.52h15.27M34.05,713.65h-16.44M3.52,692.51l0,41.1M17.61,713.65l0,-18.79M3.52,733.61h3.52M11.74,694.86l0,-2.35M17.61,694.86h-5.87M11.74,692.51h-8.22M34.05,728.03l0,-14.38M436.82,756.21h-91.59M232.5,726.25l0,8.83M225.46,682.24h-39.92M225.46,735.08l0,-8.83h7.05M225.46,691.02l0,-8.79M225.46,691.02h7.05M317.05,735.08h-21.14M436.82,756.21l0,26.42M443.86,756.21l0,19.38M187.29,382.8L187.29,184.36M196.69,382.8L196.69,184.36M185.53,610.61H17.61M185.53,617.65H17.61M225.46,460.3H68.38M225.46,453.26H65.46M17.61,501.11l47.85,-47.85M17.61,511.07l50.77,-50.77M38.75,365.19l0,-49.32M52.84,318.22l0,50.49M3.52,432.42l0,-41.1M34.05,396.89l0,14.38h-16.44l0,18.79M11.74,430.07l0,2.35h-8.22M17.61,430.07h-5.87M7.05,368.71h16.44M3.52,391.32h3.52l0,-22.6M23.48,368.71l0,-3.52h15.27M137.97,382.8h-59.3M137.97,389.85h-59.3M137.97,382.8l0,7.05M38.75,315.87h8.22l0,2.35h5.87M327.61,403.94l0,69.28M334.66,403.94l0,69.28M232.5,469.7l0,-27.01M288.86,439.17l0,41.1M295.91,439.17l0,34.05M376.05,651.71h-41.39M376.05,644.66h-87.19M377.23,480.27h-88.36M377.23,473.22h-42.57M225.46,583.6l0,-78.67M192.58,675.19l0,-84.55M225.46,675.19l0,-84.55M225.46,675.19h-32.88M225.46,590.65h-32.88M225.46,583.6h-39.92M185.53,610.61l0,-27.01M327.61,651.71h-31.7M225.46,504.93h7.05M225.46,469.7l0,-9.39M225.46,469.7h7.05M327.61,473.22h-31.7M503.46,651.71h-75.74M503.46,644.66h-75.74M376.05,651.71l0,-7.05M427.72,651.71l0,-7.05M503.46,651.71l0,-7.05M552.78,651.71l0,-7.05M503.46,473.22h-76.91M503.46,480.27h-76.91M377.23,473.22l0,7.05M426.54,473.22l0,7.05M503.46,473.22l0,7.05M552.78,473.22l0,7.05M225.46,400.42l0,-10.57M232.5,400.42l0,-10.57M225.46,453.26l0,-10.57h7.05M225.46,400.42h7.05M225.46,389.85h-45.21M187.29,382.8h-7.05l0,7.05M288.86,439.17h7.05M317.05,389.85h-21.14M288.86,396.89h7.05M288.86,389.85l0,7.05M295.91,389.85l0,7.05M602.39,720.99l0,-69.28M595.34,720.99l0,-69.28M890.08,745.65l0,-96.29M883.03,738.6l0,-86.89M870.12,720.99l0,-69.28M863.07,720.99l0,-69.28M974.04,745.65l0,-96.29M981.08,738.6L981.08,630.57M1169.49,647.11L1169.49,759.74M1164.8,651.81l0,72.7M1127.28,724.51L1127.28,569.51M1134.32,724.51l0,-72.7M852.5,749.17H612.96M669.32,756.21h-56.36M676.37,789.68h-70.45M669.32,782.63h-56.36M605.91,782.63l0,7.05M612.96,775.59l0,7.05M676.37,756.21l0,33.47M669.32,756.21l0,26.42M890.08,745.65h-9.39M883.03,738.6h-2.35M1116.71,745.65H974.04M1116.71,738.6H981.08M1169.49,759.74h-17.56M1164.8,755.04h-12.86M1151.93,724.51h12.86M1151.93,729.21h12.86M1694.44,759.74l0,35.23M1686.22,794.96l0,-2.35M1694.44,794.96h-8.22M1726.14,733.61l0,22.6M1680.34,792.62l0,-36.4M1686.22,792.62h-5.87M1726.14,756.21h-16.44M1709.7,759.74h-15.27M1709.7,756.21l0,3.52M1729.66,683.12l0,50.49M1715.57,713.65l0,-28.18M1699.13,713.65h16.44M1699.13,728.03l0,-14.38M1729.66,733.61h-3.52M1721.44,683.12h8.22M1721.44,685.47l0,-2.35M1715.57,685.47h5.87M965.23,368.71h-84.55M1021.59,361.67H880.68M602.39,403.94l0,69.28M595.34,403.94l0,69.28M863.07,403.94l0,69.28M870.12,403.94l0,69.28M771.19,644.66h-76.91M771.19,651.71h-76.91M771.19,480.27h-76.91M771.19,473.22h-76.91M644.95,651.71h-42.57M644.95,651.71l0,-7.05M694.27,651.71l0,-7.05M644.95,473.22h-42.57M644.95,473.22l0,7.05M694.27,473.22l0,7.05M863.07,651.71h-42.57M771.19,651.71l0,-7.05M820.5,651.71l0,-7.05M883.03,651.71h-12.92M915.91,480.27h-95.41M863.07,473.22h-42.57M771.19,473.22l0,7.05M820.5,473.22l0,7.05M915.91,473.22h-45.8M915.85,480.31l0,-7.09M852.5,375.76H612.96M852.5,368.71H676.37M605.91,361.67l0,-30.53M612.96,361.67l0,-23.48M669.32,368.71l0,-30.53M676.37,368.71l0,-37.58M669.32,338.18h-56.36M676.37,331.14h-70.45M972.28,473.22L972.28,368.71M965.23,473.22L965.23,368.71M1021.59,480.27l0,-28.01M1014.55,473.22l0,-20.97M1134.32,651.81h30.47M1134.32,647.11h35.17M974.04,588.3l0,-25.83M1127.28,569.51H981.08M981.08,630.57h-7.05M981.08,588.3h-7.05M981.08,588.3l0,-18.79M1134.32,562.46H978.73M1014.55,473.22h-42.27M1021.59,480.27h-42.86M958.18,480.31l0,-7.09M965.23,473.22h-7.05M1021.59,409.98l0,-48.31M1014.55,409.98l-0,-41.27M1021.59,452.25h-7.05M1021.59,409.98h-7.05M1014.55,368.71h-42.27M850.15,0l0,3.52M883.03,0l0,3.52M883.03,41.1h-32.88M850.15,17.61l0,23.48M835.77,17.61h14.38M835.77,11.74l0,5.87M833.42,11.74h2.35M833.42,3.52h16.73M833.42,3.52l0,8.22M883.03,17.61l0,23.48M897.42,11.74l0,5.87h-14.38M899.77,11.74h-2.35M899.77,3.52h-16.73M899.77,3.52l0,8.22M883.03,0h-32.88M1680.34,332.31l0,36.4M1694.44,365.19l0,-35.23M1729.66,441.81l0,-50.49M1699.13,396.89l0,14.38M1715.57,411.28l0,28.18h5.87l0,2.35h8.22M1699.13,411.28h16.44M1709.7,368.71l0,-3.52M1726.14,368.71h-16.44M1729.66,391.32h-3.52l0,-22.6M1709.7,365.19h-15.27M1694.44,329.96h-8.22M1686.22,332.31h-5.87M1686.22,329.96l0,2.35M669.32,368.71h-56.36M1134.32,647.11l0,-84.64M1164.8,729.21l0,25.83M102.45,954.66h-37.58l0,-3.52h-22.6l0,-16.44h-3.52l0,-59.89h8.22l0,2.35h5.87l0,43.45h27.01l0,16.44h10.27l0,3.52h9.98l0,5.87h2.35l0,8.22M34.05,728.03h44.62l0,7.05M78.67,742.12l0,14.09M52.84,756.21h25.83M306.48,962l0,-10.86h-6.75l0,3.52h-26.42l0,-8.22h2.35l0,-5.87h8.51l0,-3.52h36.4l0,24.95M176.43,958.18l0,-3.52h-8.22l0,-8.22h2.35l0,-5.87h34.64l0,5.87h2.35l0,8.22h-8.22l0,3.52h-22.9M345.23,756.21l0,7.05h-28.18M317.05,735.08l0,-14.09h10.57M334.66,720.99h10.57l0,28.18M0,600.92h3.52l0,-8.22h8.22l0,2.35h5.87l0,15.56M17.61,617.65l0,12.04h-5.87l0,2.35h-8.22l0,-8.22h-3.52l0,-22.9M17.61,501.11l0,-5.87h-5.87l0,-2.35h-8.22l0,8.22h-3.52l0,22.9h3.52l0,8.22h8.22l0,-2.35h5.87l0,-18.81M78.67,382.8l0,-14.09M52.84,368.71h25.83M34.05,396.89h44.62l0,-7.05M345.23,368.71l0,-7.05h-28.18l0,21.14M317.05,389.85l0,14.09h10.57M334.66,403.94h10.57l0,-28.18M101.28,170.27h-36.4l0,3.52h-22.6l0,16.44h-3.52l0,59.89h8.22l0,-2.35h5.87l0,-43.45h25.83l0,-16.44h10.27l0,-3.52h9.98l0,-5.87h2.35l0,-8.22M356.68,100.99h11.16l0,-5.87h2.35l0,-8.22h-38.75l0,3.52h-21.43l0,16.44h-3.52l0,66.93h-6.75l0,-3.52h-26.42l0,8.22h2.35l0,5.87h8.51l0,3.52h36.4l0,-66.93h25.83l0,-16.44h10.27l0,-3.52M187.29,184.36h-16.73l0,-5.87h-2.35l0,-8.22h8.22l0,-3.52h22.9l0,3.52h8.22l0,8.22h-2.35l0,5.87h-8.51M444.16,83.37l0,3.52h-8.22l0,8.22h2.35l0,5.87h34.64l0,-5.87h2.35l0,-8.22h-8.22l0,-3.52h-22.9M852.5,756.21H676.37M584.77,763.26l0,-7.05M612.96,756.21l0,7.05h-28.18M602.39,720.99h10.57l0,28.18M584.77,749.17l0,-28.18h10.57M880.68,745.65l0,17.61h-28.18l0,-42.27h10.57M870.12,720.99h10.57l0,17.61M1151.93,759.74h-35.23l0,-14.09M1134.32,724.51h17.61M1116.71,738.6l0,-14.09h10.57M1151.93,729.21l0,25.83M1699.13,728.03h-44.62l0,28.18M1680.34,756.21h-25.83M1633.08,931.18h35.23l0,-3.52h22.6l0,-16.44h3.52l0,-50.49h-8.22l0,2.35h-5.87l0,34.05h-24.66l0,16.44h-10.27l0,3.52h-9.98l0,5.87h-2.35l0,8.22M1536.21,934.7l0,-3.52h-8.22l0,-8.22h2.35l0,-5.87h34.64l0,5.87h2.35l0,8.22h-8.22l0,3.52h-22.9M1426.71,962l0,-34.35h7.34l0,3.52h28.18l0,-8.22h-2.35l0,-5.87h-8.51l0,-3.52h-38.75l0,48.44M1384.44,724.51h35.23l0,35.23h-35.23l0,-35.23M1268.48,95.11l0,3.52h-8.22l0,8.22h2.35l0,5.87h34.64l0,-5.87h2.35l0,-8.22h-8.22l0,-3.52h-22.9M584.77,375.76l0,28.18h28.18l0,-28.18M605.91,361.67h-21.14l0,7.05M612.96,368.71l0,-7.05M870.12,403.94h10.57l0,-35.23M852.5,375.76l0,28.18h10.57M880.68,361.67h-28.18l0,7.05M1116.71,400.42h35.23l0,-35.23h-35.23l0,35.23M623.23,21.14h15.85l0,-5.87h2.35l0,-8.22h-42.27l0,3.52h-21.43l0,16.44h-3.52l0,63.41h-7.34l0,-3.52h-25.83l0,8.22h2.35l0,5.87h7.93l0,3.52h36.99l0,-63.41h24.66l0,-16.44h10.27l0,-3.52M767.66,3.52l0,8.22h-2.35l0,5.87h-15.85l0,3.52h-39.92l0,-5.87h-2.35l0,-8.22h18.2l0,-3.52h42.27M1109.96,21.14h-15.85l0,-5.87h-2.35l0,-8.22h42.27l0,3.52h21.43l0,16.44h3.52l0,75.15h7.34l0,-3.52h28.18l0,8.22h-2.35l0,5.87h-8.51l0,3.52h-38.75l0,-75.15h-24.66l0,-16.44h-10.27l0,-3.52M965.52,3.52l0,8.22h2.35l0,5.87h15.85l0,3.52h39.92l0,-5.87h2.35l0,-8.22h-18.2l0,-3.52h-42.27M1633.08,193.75h35.23l0,3.52h22.6l0,16.44h3.52l0,50.49h-8.22l0,-2.35h-5.87l0,-34.05h-24.66l0,-16.44h-10.27l0,-3.52h-9.98l0,-5.87h-2.35l0,-8.22M1699.13,396.89h-44.62l0,-28.18M1680.34,368.71h-25.83M1384.44,400.42h35.23l0,-35.23h-35.23l0,35.23M1729.66,614.42l0,8.22h-8.22l0,-2.35h-5.87l0,-25.25h5.87l0,-2.35h8.22l0,8.22h3.52l0,13.5h-3.52M1729.66,510.5l0,-8.22h-8.22l0,2.35h-5.87l0,25.25h5.87l0,2.35h8.22l0,-8.22h3.52l0,-13.5h-3.52M1378.27,112.73h-10.57l0,-5.87h-2.35l0,-8.22h36.4l0,3.52h21.43l0,16.44h3.52l0,78.67h7.34l0,-3.52h28.18l0,8.22h-2.35l0,5.87h-8.51l0,3.52h-38.75l0,-78.67h-24.07l0,-16.44h-10.27l0,-3.52M1536.21,190.23l0,3.52h-8.22l0,8.22h2.35l0,5.87h34.64l0,-5.87h2.35l0,-8.22h-8.22l0,-3.52h-22.9" />
</g>
<g style="font-family: arial, helvetica, sans-serif" stroke="none" fill="#7F0000">
<g font-size="86.580000" stroke="none" fill="#7F0000">
<text id="cv_29" transform="scale(1.111111 1) translate(311.97 769.6) rotate(330) " >For Demonstration Purposes Only</text>
<text id="cv_30" transform="scale(1.111111 1) translate(623.95 769.6) rotate(330) " >Tailor Made Software, Ltd</text>
</g>
</g>
</g>
<g id="layer_GROS_24_" class="layer_GROS_24_"  cvjs:layerName="GROS$" cvjs:plottable="YES"
 cvjs:status="ON" visibility="visible">
<g id="cvclr_31" stroke="#FF3F00" fill="none">
<path id="cv_32" class=" ZW" d="M64.88,170.27v3.52h-22.6v16.44h-3.52V365.19h-15.27v3.52h-16.44v22.6h-3.52V501.11h-3.52v22.9h3.52v76.91h-3.52v22.9h3.52V733.61h3.52v22.6h16.44v3.52h15.27V934.7h3.52v16.44h22.6v3.52H176.43v3.52h22.9v-3.52H299.73v-3.52h6.75v10.86M1426.71,962v-34.35h7.34v3.52H1536.21v3.52h22.9v-3.52H1668.31v-3.52h22.6v-16.44h3.52V759.74h15.27v-3.52h16.44v-22.6h3.52V614.42h3.52v-13.5h-3.52v-76.91h3.52v-13.5h-3.52V391.32h-3.52v-22.6h-16.44v-3.52h-15.27V213.71h-3.52v-16.44h-22.6v-3.52H1559.1v-3.52h-22.9v3.52H1434.05v3.52h-7.34v-78.67h-3.52v-16.44h-21.43v-3.52H1291.38v-3.52h-22.9v3.52H1166.32v3.52h-7.34v-75.15h-3.52v-16.44h-21.43v-3.52H1007.8v-3.52H883.03v-3.52h-32.88v3.52H725.39v3.52H599.16v3.52h-21.43v16.44h-3.52v63.41h-7.34v-3.52h-99.81v-3.52h-22.9v3.52H331.43v3.52h-21.43v16.44h-3.52v66.93h-6.75v-3.52H199.33v-3.52h-22.9v3.52H64.88M588.3,104.51h-36.99v-3.52H356.68v3.52h-36.11v83.37h-36.4v-3.52H88.95v3.52h-36.11V396.89h-18.79v14.38h-16.44V713.65h16.44v14.38h18.79V937.05h37.28v3.52H284.17v-3.52h36.4v24.95M1412.62,962v-48.44h38.75v3.52H1645.41v-3.52h34.93V728.03h18.79v-14.38h16.44V411.28h-16.44v-14.38h-18.79V211.36h-34.93v-3.52H1451.37v3.52h-38.75v-95.11h-34.35v-3.52H1183.64v3.52h-38.75v-91.59h-34.93v-3.52H983.72v-3.52H749.46v3.52H623.23v3.52h-34.93v79.85" />
</g>
<g style="font-family: arial, helvetica, sans-serif" stroke="none" fill="#7F0000">
<g font-size="86.580000" stroke="none" fill="#7F0000">
<text id="cv_33" transform="scale(1.111111 1) translate(311.97 769.6) rotate(330) " >For Demonstration Purposes Only</text>
<text id="cv_34" transform="scale(1.111111 1) translate(623.95 769.6) rotate(330) " >Tailor Made Software, Ltd</text>
</g>
</g>
</g>
<g id="layer_PL_2D_MISC" class="layer_PL_2D_MISC"  cvjs:layerName="PL-MISC" cvjs:plottable="YES"
 cvjs:status="ON" visibility="visible">
<g id="cvclr_35" stroke="#29A500" fill="none">
<path id="cv_36" class="ZW" d="M443.86,761.5L584.77,775.59M443.86,775.59L584.77,761.5M327.61,651.71l-31.7,69.28M295.91,651.71l31.7,69.28M462.65,651.71l0,97.46M467.35,651.71l0,97.46M462.65,473.22l0,-97.46M467.35,473.22l0,-97.46M225.46,590.65l-32.88,84.55M192.58,590.65l32.88,84.55M730.38,651.71l0,97.46M735.08,651.71l0,97.46M1134.32,651.81l30.47,72.7M1134.32,724.51l30.47,-72.7M612.96,761.5l56.36,21.14M612.96,782.63l56.36,-21.14M730.38,473.22l0,-97.46M735.08,473.22l0,-97.46M612.96,338.18l56.36,21.14M612.96,359.32l56.36,-21.14M612.96,359.32h56.36M317.05,720.99h-21.14M612.96,763.26l0,12.33M584.77,763.26l0,12.33" />
</g>
<g style="font-family: arial, helvetica, sans-serif" stroke="none" fill="#7F0000">
<g font-size="86.580000" stroke="none" fill="#7F0000">
<text id="cv_37" transform="scale(1.111111 1) translate(311.97 769.6) rotate(330) " >For Demonstration Purposes Only</text>
<text id="cv_38" transform="scale(1.111111 1) translate(623.95 769.6) rotate(330) " >Tailor Made Software, Ltd</text>
</g>
</g>
</g>
<g id="layer_PL_2D_TOIL" class="layer_PL_2D_TOIL"  cvjs:layerName="PL-TOIL" cvjs:plottable="YES"
 cvjs:status="ON" visibility="visible">
<g id="cvclr_39" stroke="#29A500" fill="none">
<path id="cv_40" class="ZW" d="M110.38,679.89l0,2.35M116.25,679.89l0,2.35M144.43,679.89l0,2.35M153.83,679.89l0,2.35M182.01,679.89l0,2.35M160.62,715.93l24.91,-24.91M116.25,682.24h-5.87M153.83,682.24h-9.39M185.53,726.25l0,8.83M187.88,726.25l0,8.83M185.53,726.25h2.35M185.53,682.24h-3.52M187.88,682.24l0,8.79M185.53,682.24l0,8.79h2.35M75.15,610.61l0,-61.65M72.8,610.61l0,-61.65M112.73,610.61l0,-61.65M110.38,610.61l0,-61.65M147.95,610.61l0,-61.65M150.3,610.61l0,-61.65M112.73,679.3l0,-61.65M110.38,679.3l0,-61.65M147.95,679.3l0,-61.65M150.3,679.3l0,-61.65M116.25,679.89h-5.87M110.38,679.3h2.35M153.83,679.89h-9.39M150.3,679.3h-2.35M78.67,548.37h-5.87M78.67,546.02h-5.87M78.67,548.37l0,-2.35M72.8,546.02l0,2.35M75.15,548.96h-2.35M116.25,548.37h-9.39M116.25,546.02h-9.39M106.86,548.37l0,-2.35M112.73,548.96h-2.35M116.25,548.37l0,-2.35M153.83,546.02h-9.39M153.83,548.37h-9.39M153.83,548.37l0,-2.35M144.43,548.37l0,-2.35M150.3,548.96h-2.35M185.53,583.6l0,-35.23M187.88,583.6l0,-35.23M185.53,679.89h-3.52M185.53,513.15l0,-52.84M187.88,513.15l0,-52.84M187.88,541.33h-2.35M185.53,546.02h-3.52M185.53,548.37h-3.52M187.88,546.02l0,-4.7M185.53,546.02l0,-4.7M192.58,546.02h-4.7M192.58,548.37h-4.7M187.88,541.33h-2.35M192.58,546.02l0,2.35M182.01,548.37l0,-2.35M187.88,513.15h-2.35M225.46,548.37h-4.7M225.46,546.02h-4.7M220.76,548.37l0,-2.35M68.38,460.3l-50.77,50.77M185.53,679.89L185.53,548.37M1116.97,738.68H981.29M981.13,738.29L981.13,630.57M1127.15,569.57L1127.15,724.56M981.13,569.57H1127.15M981.13,588.3l0,-18.72M68.38,460.3H185.53" />
<path id="cv_41" class="ZW" d="M160.62,715.93A 35.227357 35.227357 0 0 0 185.53 726.25" />
</g>
<g style="font-family: arial, helvetica, sans-serif" stroke="none" fill="#7F0000">
<g font-size="86.580000" stroke="none" fill="#7F0000">
<text id="cv_42" transform="scale(1.111111 1) translate(311.97 769.6) rotate(330) " >For Demonstration Purposes Only</text>
<text id="cv_43" transform="scale(1.111111 1) translate(623.95 769.6) rotate(330) " >Tailor Made Software, Ltd</text>
</g>
</g>
<g class="SINK" id="cv_Block_SINK_1">
<g id="cvclr_44" stroke="#29A500" fill="none">
<path id="cv_45" class=" ZW" d="M95.1,620.73v-0.01v0.01" />
<path id="cv_46" class="ZW" d="M71.8,617.65l0,22.41M73.09,641.35h31.06M105.45,640.06l0,-22.41h-33.64M77.46,638.36h22.32M102.46,635.69l0,-9.75M74.79,625.94l0,9.75M99.78,623.27h-10.26M87.64,621.27l0,7.42h1.88l0,-7.42h-1.88M87.64,623.27h-10.18" />
<path id="cv_47" class="ZW" d="M77.46,623.27A 2.672561 2.672561 0 0 0 74.79 625.94M74.79,635.69A 2.672561 2.672561 0 0 0 77.46 638.36M99.78,638.36A 2.672561 2.672561 0 0 0 102.46 635.69M102.46,625.94A 2.672561 2.672561 0 0 0 99.78 623.27M71.8,640.06A 1.291670 1.291670 0 0 0 73.09 641.35M104.16,641.35A 1.291670 1.291670 0 0 0 105.45 640.06" />
<circle id="cv_48" class="ZW" cx="83.8" cy="620.73" r="1.734797" />
</g>
</g>
<g class="SINK" id="cv_Block_SINK_2">
<g id="cvclr_49" stroke="#29A500" fill="none">
<path id="cv_50" class=" ZW" d="M54.97,620.73v-0.01v0.01" />
<path id="cv_51" class="ZW" d="M31.67,617.65l0,22.41M32.96,641.35h31.06M65.32,640.06l0,-22.41h-33.64M37.33,638.36h22.32M62.33,635.69l0,-9.75M34.66,625.94l0,9.75M59.66,623.27h-10.26M47.51,621.27l0,7.42h1.88l0,-7.42h-1.88M47.51,623.27h-10.18" />
<path id="cv_52" class="ZW" d="M37.33,623.27A 2.672561 2.672561 0 0 0 34.66 625.94M34.66,635.69A 2.672561 2.672561 0 0 0 37.33 638.36M59.66,638.36A 2.672561 2.672561 0 0 0 62.33 635.69M62.33,625.94A 2.672561 2.672561 0 0 0 59.66 623.27M31.67,640.06A 1.291670 1.291670 0 0 0 32.96 641.35M64.03,641.35A 1.291670 1.291670 0 0 0 65.32 640.06" />
<circle id="cv_53" class="ZW" cx="43.67" cy="620.73" r="1.734797" />
</g>
</g>
<g class="SINK" id="cv_Block_SINK_3">
<g id="cvclr_54" stroke="#29A500" fill="none">
<path id="cv_55" class=" ZW" d="M54.97,607.53v0.01v-0.01" />
<path id="cv_56" class="ZW" d="M31.67,610.61l0,-22.41M32.96,586.91h31.06M65.32,588.2l0,22.41h-33.64M37.33,589.9h22.32M62.33,592.57l0,9.75M34.66,602.32l0,-9.75M59.66,604.99h-10.26M47.51,606.99l0,-7.42h1.88l0,7.42h-1.88M47.51,604.99h-10.18" />
<path id="cv_57" class="ZW" d="M34.66,602.32A 2.672561 2.672561 0 0 0 37.33 604.99M37.33,589.9A 2.672561 2.672561 0 0 0 34.66 592.57M62.33,592.57A 2.672561 2.672561 0 0 0 59.66 589.9M59.66,604.99A 2.672561 2.672561 0 0 0 62.33 602.32M32.96,586.91A 1.291670 1.291670 0 0 0 31.67 588.2M65.32,588.2A 1.291670 1.291670 0 0 0 64.03 586.91" />
<circle id="cv_58" class="ZW" cx="43.67" cy="607.53" r="1.734797" />
</g>
</g>
<g class="SINK" id="cv_Block_SINK_4">
<g id="cvclr_59" stroke="#29A500" fill="none">
<path id="cv_60" class=" ZW" d="M102.58,465.73v-0.01v0.01" />
<path id="cv_61" class="ZW" d="M116.31,462.65l0,22.41M115.02,486.35h-31.06M82.67,485.06l0,-22.41h33.64M110.65,483.36h-22.32M85.66,480.69l0,-9.75M113.32,470.94l0,9.75M88.33,468.27h10.26M100.47,466.27l0,7.42h-1.88l0,-7.42h1.88M100.47,468.27h10.18" />
<path id="cv_62" class="ZW" d="M113.32,470.94A 2.672561 2.672561 0 0 0 110.65 468.27M110.65,483.36A 2.672561 2.672561 0 0 0 113.32 480.69M85.66,480.69A 2.672561 2.672561 0 0 0 88.33 483.36M88.33,468.27A 2.672561 2.672561 0 0 0 85.66 470.94M115.02,486.35A 1.291670 1.291670 0 0 0 116.31 485.06M82.67,485.06A 1.291670 1.291670 0 0 0 83.96 486.35" />
<circle id="cv_63" class="ZW" cx="94.75" cy="465.73" r="1.734797" />
</g>
</g>
<g class="WC_2D_DOOR" id="cv_Block_WC_2D_DOOR_5">
<g id="cvclr_64" stroke="#29A500" fill="none">
<path id="cv_65" class="ZW" d="M182.01,548.37l-19.93,19.93" />
<path id="cv_66" class="ZW" d="M153.83,548.37A 28.181886 28.181886 0 0 0 162.08 568.3" />
</g>
</g>
<g class="TOILET" id="cv_Block_TOILET_6">
<g id="cvclr_67" stroke="#29A500" fill="none">
<path id="cv_68" class=" ZW" d="M167.92,621.18" />
<path id="cv_69" class="ZW" d="M176.14,617.65h-16.44M176.14,617.65l-2.94,5.28M159.7,617.65l2.94,5.28" />
<path id="cv_70" class="ZW" d="M173.2,622.94A 6.044797 6.044797 0 0 0 173.2 628.81M173.2,645.25A 12.975410 12.975410 0 0 0 173.2 628.81M162.63,645.25A 6.223500 6.223500 0 0 0 173.2 645.25M162.63,628.81A 12.975410 12.975410 0 0 0 162.63 645.25M162.63,628.81A 6.044797 6.044797 0 0 0 162.63 622.94" />
</g>
</g>
<g class="TOILET" id="cv_Block_TOILET_7">
<g id="cvclr_71" stroke="#29A500" fill="none">
<path id="cv_72" class=" ZW" d="M167.92,607.08" />
<path id="cv_73" class="ZW" d="M176.14,610.61h-16.44M176.14,610.61l-2.94,-5.28M159.7,610.61l2.94,-5.28" />
<path id="cv_74" class="ZW" d="M173.2,599.45A 6.044797 6.044797 0 0 0 173.2 605.32M173.2,599.45A 12.975410 12.975410 0 0 0 173.2 583.01M173.2,583.01A 6.223500 6.223500 0 0 0 162.63 583.01M162.63,583.01A 12.975410 12.975410 0 0 0 162.63 599.45M162.63,605.32A 6.044797 6.044797 0 0 0 162.63 599.45" />
</g>
</g>
<g class="WC_2D_DOOR" id="cv_Block_WC_2D_DOOR_8">
<g id="cvclr_75" stroke="#29A500" fill="none">
<path id="cv_76" class="ZW" d="M182.01,679.89l-19.93,-19.93" />
<path id="cv_77" class="ZW" d="M162.08,659.96A 28.181886 28.181886 0 0 0 153.83 679.89" />
</g>
</g>
<g class="URINAL" id="cv_Block_URINAL_9">
<g id="cvclr_78" stroke="#29A500" fill="none">
<path id="cv_79" class=" ZW" d="M168.17,466.18" />
<path id="cv_80" class="ZW" d="M157.61,462.65h21.14M157.61,470.87l0,-8.22M159.95,469.7l0,1.17M166.41,476.16l-4.7,-6.46M174.63,469.7l-4.7,6.46M176.39,470.87l0,-1.17M178.74,462.65l0,8.22M175.22,469.11h-14.09" />
<path id="cv_81" class="ZW" d="M157.61,470.87A 1.174245 1.174245 0 1 0 159.95 470.87M161.72,469.7A 0.928322 0.928322 0 0 0 159.95 469.7M166.41,476.16A 2.935613 2.935613 0 0 0 169.93 476.16M176.39,469.7A 0.928322 0.928322 0 0 0 174.63 469.7M176.39,470.87A 1.174245 1.174245 0 1 0 178.74 470.87" />
</g>
</g>
<g class="WC_2D_DOOR" id="cv_Block_WC_2D_DOOR_10">
<g id="cvclr_82" stroke="#29A500" fill="none">
<path id="cv_83" class="ZW" d="M185.53,541.33l-19.93,-19.93" />
<path id="cv_84" class="ZW" d="M185.53,513.15A 28.181886 28.181886 0 0 0 165.6 521.4" />
</g>
</g>
<g class="WC_2D_DOOR" id="cv_Block_WC_2D_DOOR_11">
<g id="cvclr_85" stroke="#29A500" fill="none">
<path id="cv_86" class="ZW" d="M144.43,548.37l-19.93,19.93" />
<path id="cv_87" class="ZW" d="M116.25,548.37A 28.181886 28.181886 0 0 0 124.5 568.3" />
</g>
</g>
<g class="WC_2D_DOOR" id="cv_Block_WC_2D_DOOR_12">
<g id="cvclr_88" stroke="#29A500" fill="none">
<path id="cv_89" class="ZW" d="M106.86,548.37l-19.93,19.93" />
<path id="cv_90" class="ZW" d="M78.67,548.37A 28.181886 28.181886 0 0 0 86.93 568.3" />
</g>
</g>
<g class="TOILET" id="cv_Block_TOILET_13">
<g id="cvclr_91" stroke="#29A500" fill="none">
<path id="cv_92" class=" ZW" d="M130.34,621.18" />
<path id="cv_93" class="ZW" d="M138.56,617.65h-16.44M138.56,617.65l-2.94,5.28M122.12,617.65l2.94,5.28" />
<path id="cv_94" class="ZW" d="M135.63,622.94A 6.044797 6.044797 0 0 0 135.63 628.81M135.63,645.25A 12.975410 12.975410 0 0 0 135.63 628.81M125.06,645.25A 6.223500 6.223500 0 0 0 135.63 645.25M125.06,628.81A 12.975410 12.975410 0 0 0 125.06 645.25M125.06,628.81A 6.044797 6.044797 0 0 0 125.06 622.94" />
</g>
</g>
<g class="WC_2D_DOOR" id="cv_Block_WC_2D_DOOR_14">
<g id="cvclr_95" stroke="#29A500" fill="none">
<path id="cv_96" class="ZW" d="M144.43,679.89l-19.93,-19.93" />
<path id="cv_97" class="ZW" d="M124.51,659.96A 28.181886 28.181886 0 0 0 116.25 679.89" />
</g>
</g>
<g class="TOILET" id="cv_Block_TOILET_15">
<g id="cvclr_98" stroke="#29A500" fill="none">
<path id="cv_99" class=" ZW" d="M92.77,607.08" />
<path id="cv_100" class="ZW" d="M100.99,610.61h-16.44M100.99,610.61l-2.94,-5.28M84.55,610.61l2.94,-5.28" />
<path id="cv_101" class="ZW" d="M98.05,599.45A 6.044797 6.044797 0 0 0 98.05 605.32M98.05,599.45A 12.975410 12.975410 0 0 0 98.05 583.01M98.05,583.01A 6.223500 6.223500 0 0 0 87.48 583.01M87.48,583.01A 12.975410 12.975410 0 0 0 87.48 599.45M87.48,605.32A 6.044797 6.044797 0 0 0 87.48 599.45" />
</g>
</g>
<g class="TOILET" id="cv_Block_TOILET_16">
<g id="cvclr_102" stroke="#29A500" fill="none">
<path id="cv_103" class=" ZW" d="M130.34,607.08" />
<path id="cv_104" class="ZW" d="M138.56,610.61h-16.44M138.56,610.61l-2.94,-5.28M122.12,610.61l2.94,-5.28" />
<path id="cv_105" class="ZW" d="M135.63,599.45A 6.044797 6.044797 0 0 0 135.63 605.32M135.62,599.45A 12.975410 12.975410 0 0 0 135.63 583.01M135.63,583.01A 6.223500 6.223500 0 0 0 125.06 583.01M125.06,583.01A 12.975410 12.975410 0 0 0 125.06 599.45M125.06,605.32A 6.044797 6.044797 0 0 0 125.06 599.45" />
</g>
</g>
<g class="URINAL" id="cv_Block_URINAL_17">
<g id="cvclr_106" stroke="#29A500" fill="none">
<path id="cv_107" class=" ZW" d="M141,466.18" />
<path id="cv_108" class="ZW" d="M130.43,462.65h21.14M130.43,470.87l0,-8.22M132.78,469.7l0,1.17M139.24,476.16l-4.7,-6.46M147.45,469.7l-4.7,6.46M149.22,470.87l0,-1.17M151.56,462.65l0,8.22M148.04,469.11h-14.09" />
<path id="cv_109" class="ZW" d="M130.43,470.87A 1.174245 1.174245 0 1 0 132.78 470.87M134.54,469.7A 0.928322 0.928322 0 0 0 132.78 469.7M139.24,476.16A 2.935613 2.935613 0 0 0 142.76 476.16M149.22,469.7A 0.928322 0.928322 0 0 0 147.45 469.7M149.22,470.87A 1.174245 1.174245 0 1 0 151.56 470.87" />
</g>
</g>
<g class="WC_2D_DOOR" id="cv_Block_WC_2D_DOOR_18">
<g id="cvclr_110" stroke="#29A500" fill="none">
<path id="cv_111" class="ZW" d="M192.58,546.02l19.93,-19.93" />
<path id="cv_112" class="ZW" d="M220.76,546.03A 28.181886 28.181886 0 0 0 212.51 526.1" />
</g>
</g>
</g>
<g id="layer_DR" class="layer_DR"  cvjs:layerName="DR" cvjs:plottable="YES"
 cvjs:status="ON" visibility="visible">
<g id="cvclr_113" stroke="#FF7F00" fill="none">
<path id="cv_114" class="ZW" d="M200.55,715.93l24.91,-24.91M150.36,352.91l29.89,29.89M200.55,494.61l24.91,-24.91M258.97,426.79l29.89,-29.89M195.56,412.8l29.89,29.89M944.15,600.68l29.89,29.89M928.29,510.16l29.89,-29.89M1051.5,439.77l-29.89,-29.89" />
<path id="cv_115" class="ZW" d="M200.54,715.93A 35.227357 35.227357 0 0 0 225.45 726.25M150.36,352.91A 42.272829 42.272829 0 0 0 137.97 382.8M200.54,494.61A 35.227357 35.227357 0 0 0 225.45 504.93M258.97,426.78A 42.272829 42.272829 0 0 0 288.86 439.17M225.46,400.42A 42.272829 42.272829 0 0 0 195.56 412.8M974.04,588.3A 42.272829 42.272829 0 0 0 944.15 600.68M915.91,480.26A 42.272829 42.272829 0 0 0 928.29 510.16M1021.61,452.15A 42.272829 42.272829 0 0 0 1051.5 439.77" />
</g>
<g style="font-family: arial, helvetica, sans-serif" stroke="none" fill="#7F0000">
<g font-size="86.580000" stroke="none" fill="#7F0000">
<text id="cv_116" transform="scale(1.111111 1) translate(311.97 769.6) rotate(330) " >For Demonstration Purposes Only</text>
<text id="cv_117" transform="scale(1.111111 1) translate(623.95 769.6) rotate(330) " >Tailor Made Software, Ltd</text>
</g>
</g>
<g class="90S2" id="cv_Block_90S2_19">
<g id="cvclr_118" stroke="#FF7F00" fill="none">
<path id="cv_119" class=" ZW" d="M239.55,742.12l0.04,1.86l0.12,1.85l0.2,1.85l0.28,1.84l0.36,1.82l0.44,1.8l0.52,1.78l0.6,1.76l0.68,1.73l0.75,1.7l0.83,1.66l0.9,1.63l1.11,1.81l1.2,1.75l1.29,1.69l1.37,1.62l1.64,1.74l1.73,1.64l1.62,1.37l1.68,1.29l1.75,1.21l1.81,1.12l1.62,0.9l1.66,0.83l1.7,0.76l1.73,0.68l1.76,0.6l1.78,0.53l1.8,0.45l1.82,0.37l1.83,0.29l1.85,0.21l1.85,0.13l1.86,0.04l1.06,-0.01h0.27" />
<path id="cv_120" class="ZW" d="M281.82,742.12l0,42.27M280.5,742.12l0,42.19M281.82,742.12h-1.32" />
</g>
</g>
<g class="DR_2D_S90" id="cv_Block_DR_2D_S90_20">
<g id="cvclr_121" stroke="#FF7F00" fill="none">
<path id="cv_122" class=" ZW" d="M274.24,382.8l-0.04,-1.71l-0.13,-1.71l-0.21,-1.7l-0.3,-1.69l-0.38,-1.67l-0.47,-1.65l-0.55,-1.62l-0.71,-1.79l-0.81,-1.75l-0.91,-1.7l-1,-1.64l-1.22,-1.76l-1.33,-1.68l-1.58,-1.74l-1.7,-1.63l-1.64,-1.38l-1.72,-1.27l-1.61,-1.05l-1.67,-0.96l-1.72,-0.86l-1.77,-0.77l-1.61,-0.6l-1.63,-0.51l-1.66,-0.43l-1.68,-0.35l-1.69,-0.26l-1.7,-0.18l-0.85,-0.06l-0.21,-0.01" />
<path id="cv_123" class="ZW" d="M241.74,348.63l0,34h-1.66l0,-34h1.66" />
</g>
</g>
<g class="90S2" id="cv_Block_90S2_21">
<g id="cvclr_124" stroke="#FF7F00" fill="none">
<path id="cv_125" class=" ZW" d="M915.33,649.36l0.04,1.86l0.12,1.85l0.2,1.85l0.28,1.84l0.36,1.82l0.44,1.8l0.52,1.78l0.6,1.76l0.68,1.73l0.75,1.7l0.83,1.66l0.9,1.63l1.11,1.81l1.2,1.75l1.29,1.69l1.37,1.62l1.64,1.74l1.73,1.64l1.62,1.37l1.68,1.29l1.75,1.21l1.81,1.12l1.62,0.9l1.66,0.83l1.7,0.76l1.73,0.68l1.76,0.6l1.78,0.53l1.8,0.45l1.82,0.37l1.83,0.29l1.85,0.21l1.85,0.13l1.86,0.04l1.06,-0.01h0.27" />
<path id="cv_126" class="ZW" d="M957.6,649.36l0,42.27M956.28,649.36l0,42.19M957.6,649.36h-1.32" />
</g>
</g>
<g class="DR_2D_DOUB" id="cv_Block_DR_2D_DOUB_22">
<g id="cvclr_127" stroke="#FF7F00" fill="none">
<path id="cv_128" class=" ZW" d="M1013.96,486.63l-0.04,1.77l-0.13,1.77l-0.22,1.76l-0.31,1.74l-0.4,1.73l-0.48,1.7l-0.57,1.68l-0.65,1.65l-0.73,1.61l-0.92,1.77l-1.02,1.71l-1.11,1.65l-1.35,1.76l-1.45,1.67l-1.72,1.73l-1.66,1.46l-1.75,1.36l-1.64,1.12l-1.7,1.03l-1.76,0.93l-1.61,0.74l-1.64,0.66l-1.67,0.58l-1.7,0.49l-1.72,0.41l-1.74,0.32l-1.76,0.23l-1.76,0.14l-1.77,0.06h-0.22M978.73,521.86l1.77,0.04l1.77,0.13l1.76,0.22l1.74,0.31l1.73,0.4l1.7,0.48l1.68,0.57l1.65,0.65l1.61,0.73l1.77,0.92l1.71,1.02l1.65,1.11l1.76,1.35l1.67,1.45l1.73,1.72l1.46,1.66l1.36,1.75l1.12,1.64l1.03,1.7l0.93,1.76l0.74,1.61l0.66,1.64l0.58,1.67l0.49,1.7l0.41,1.72l0.32,1.74l0.23,1.76l0.14,1.76l0.06,1.77v0.22" />
<path id="cv_129" class="ZW" d="M978.73,486.63h35.23l0,1.1h-35.23l0,-1.1M978.73,555.98l0,1.1M1013.96,555.98h-35.23M1013.96,557.08l0,-1.1M978.73,557.08h35.23" />
</g>
</g>
</g>
<g id="layer_PL" class="layer_PL"  cvjs:layerName="PL" cvjs:plottable="YES"
 cvjs:status="ON" visibility="visible">
<g id="cvclr_130" stroke="#29A500" fill="none">
<path id="cv_131" class="ZW" d="M63.41,368.71L63.41,204.32M3.52,492.89l0,-60.47M38.75,315.87l0,-65.76M101.28,170.27h66.93" />
</g>
<g style="font-family: arial, helvetica, sans-serif" stroke="none" fill="#7F0000">
<g font-size="86.580000" stroke="none" fill="#7F0000">
<text id="cv_132" transform="scale(1.111111 1) translate(311.97 769.6) rotate(330) " >For Demonstration Purposes Only</text>
<text id="cv_133" transform="scale(1.111111 1) translate(623.95 769.6) rotate(330) " >Tailor Made Software, Ltd</text>
</g>
</g>
</g>
<g id="layer_PL_2D_STAIR" class="layer_PL_2D_STAIR"  cvjs:layerName="PL-STAIR" cvjs:plottable="YES"
 cvjs:status="ON" visibility="visible">
<g id="cvclr_134" stroke="none" fill="#29A500" >
<path id="cv_135" opacity="0.5" d="M91.1,267.73l1.96,-11.74l1.96,11.74h-3.91 Z "/>
<path id="cv_136" opacity="0.5" d="M155.69,267.73l1.96,-11.74l1.96,11.74h-3.91 Z "/>
<path id="cv_137" opacity="0.5" d="M1013.57,670.49l-1.96,11.74l-1.96,-11.74h3.91 Z "/>
<path id="cv_138" opacity="0.5" d="M1059.17,603.95l11.74,1.96l-11.74,1.96v-3.91 Z "/>
</g>
<g id="cvclr_139" stroke="#29A500" fill="none">
<path id="cv_140" class=" ZW" d="M117.42,325.27v-4.7h4.7v4.7h-4.7M128.58,325.27v-4.7h4.7v4.7h-4.7" />
<path id="cv_141" class=" nZW sLW_0_6" d="M158.56,322.92M117.42,258.33v-4.7h4.7v4.7h-4.7" />
<path id="cv_142" class=" ZW" d="M128.58,258.33v-4.7h4.7v4.7h-4.7M1035.1,684.58v-4.7h4.7v4.7h-4.7M1068.56,684.58v-4.7h4.7v4.7h-4.7" />
<path id="cv_143" class=" nZW sLW_0_6" d="M1012.53,637.62M1035.1,639.96v-4.7h4.7v4.7h-4.7M1038.36,605.91" />
<path id="cv_144" class=" ZW" d="M1068.56,639.96v-4.7h4.7v4.7h-4.7" />
<path id="cv_145" class="ZW" d="M119.77,253.64l0,-69.28M130.93,253.64l0,-69.28M187.29,300.61h-56.36M182.01,300.61h-51.08M182.01,311.76h-51.08M182.01,322.92h-48.73M182.01,255.99h-48.73M182.01,267.14h-51.08M182.01,278.3h-51.08M182.01,289.45h-51.08M93.06,267.73l0,86.31M119.77,382.8l0,-57.54M130.93,382.8l0,-57.54M93.06,354.03h37.87" />
<path id="cv_146" class="nZW sLW_0_6" d="M119.77,300.61h-56.36" />
<path id="cv_147" class="ZW" d="M119.77,300.61h-51.08M119.77,311.76h-51.08M117.42,322.92h-48.73M119.77,267.14h-51.08M119.77,278.3h-51.08M119.77,289.45h-51.08M117.42,255.99h-48.73M66.93,325.27l0,-71.63M68.69,325.27l0,-71.63M68.69,325.27h-1.76M66.93,322.92h-3.52M66.93,300.61h-3.52M66.93,311.76h-3.52M66.93,289.45h-3.52M66.93,255.99h-3.52M66.93,267.14h-3.52M66.93,278.3h-3.52M68.69,253.64h-1.76M130.93,320.57l0,-62.23M119.77,320.57l0,-62.23M121.53,320.57l0,-62.23M129.17,320.57l0,-62.23M157.64,267.73l0,55.19M128.58,322.92h-6.46M128.58,321.16h-6.46M128.58,255.99h-6.46M128.58,257.75h-6.46M183.77,325.27l0,-71.63M182.01,325.27l0,-71.63M187.29,322.92h-3.52M183.77,325.27h-1.76M187.29,300.61h-3.52M187.29,311.76h-3.52M187.29,289.45h-3.52M187.29,255.99h-3.52M187.29,267.14h-3.52M187.29,278.3h-3.52M183.77,253.64h-1.76M985.78,684.58l0,-49.32M988.13,684.58l0,-49.32M1120.23,684.58l0,-49.32M1122.58,684.58l0,-49.32M1073.26,731.55h-38.16M1073.26,733.9h-38.16M1068.56,682.24h-28.77M1037.45,733.9l0,4.7M1048.6,733.9l0,4.7M1035.1,682.24h-46.97M988.13,684.58h-2.35M985.78,682.24h-4.7M1037.45,684.58l0,46.97M1037.45,726.86l0,-42.27M1048.6,682.24l0,49.32M1035.1,731.55l0,2.35M1070.91,733.9l0,4.7M1059.76,733.9l0,4.7M1120.23,682.24h-46.97h46.97M1070.91,684.58l0,46.97M1070.91,726.86l0,-42.27M1059.76,682.24l0,49.32M1073.26,731.55l0,2.35M1127.28,682.24h-4.7h4.7M1120.23,684.58h2.35M1068.56,637.62h-28.77M1068.56,639.96h-28.77M1068.56,679.89h-28.77M1073.26,574.21h-38.16M1073.26,576.55h-38.16M1059.17,605.91h-21.72M1048.6,637.62l0,-61.06M1037.45,635.27l0,-58.71M1037.45,648.77h-49.32M1037.45,659.93h-49.32M1037.45,671.08h-49.32M1035.1,637.62h-46.97M985.78,659.93h-4.7M985.78,671.08h-4.7M988.13,635.27h-2.35M985.78,648.77h-4.7M1037.45,679.89l0,-39.92M1011.61,670.49l0,-32.88M1039.79,679.89l0,-39.92M1037.45,672.84l0,7.05l0,-7.05M1035.1,576.55l0,-2.35M1037.45,574.21l0,-4.7M1048.6,574.21l0,-4.7M1059.76,637.62l0,-61.06M1070.91,635.27l0,-58.71M1120.23,637.62h-46.97M1070.91,671.08h49.32M1070.91,659.93h49.32M1070.91,648.77h49.32M1073.26,637.62h46.97M1070.91,679.89l0,-39.92M1068.56,679.89l0,-39.92M1070.91,672.84l0,7.05l0,-7.05M1122.58,671.08h4.7M1122.58,659.93h4.7M1127.28,637.62h-4.7M1122.58,648.77h4.7M1122.58,637.62h4.7M1120.23,635.27h2.35M1073.26,576.55l0,-2.35M1059.76,574.21l0,-4.7M1070.91,574.21l0,-4.7M187.29,382.8L187.29,184.36" />
<circle id="cv_148" class="nZW sLW_0_6" cx="130.93" cy="354.03" r="0.910824" />
</g>
<g style="font-family: arial, helvetica, sans-serif" stroke="none" fill="#29A500">
<g font-size="13.315941" stroke="none" fill="#29A500">
<text id="cv_149" transform="scale(0.791667 1) translate(132.88 346.99) " >UP</text>
<text id="cv_150" transform="scale(0.791667 1) translate(190.78 347.96) " >DN</text>
<text id="cv_151" transform="scale(0.791667 1) translate(1268.37 630.57) " >DN</text>
<text id="cv_152" transform="scale(0.791667 1) translate(1287.91 616.48) " >UP</text>
</g>
<g font-size="0.266319" stroke="none" fill="#29A500">
<text id="cv_153" transform="scale(0.791667 1) translate(1309.98 606.12) " >UP</text>
</g>
</g>
<g style="font-family: arial, helvetica, sans-serif" stroke="none" fill="#7F0000">
<g font-size="86.580000" stroke="none" fill="#7F0000">
<text id="cv_154" transform="scale(1.111111 1) translate(311.97 769.6) rotate(330) " >For Demonstration Purposes Only</text>
<text id="cv_155" transform="scale(1.111111 1) translate(623.95 769.6) rotate(330) " >Tailor Made Software, Ltd</text>
</g>
</g>
</g>
<g id="layer_WN" class="layer_WN"  cvjs:layerName="WN" cvjs:plottable="YES"
 cvjs:status="ON" visibility="visible">
<g id="cvclr_156" stroke="#808080" fill="none">
<path id="cv_157" class="ZW" d="M17.61,495.24l0,-65.17M11.74,492.89l0,-60.47M52.84,247.77l0,70.45M46.97,250.11l0,65.76M98.93,184.36h71.63M101.28,178.49h66.93" />
</g>
<g style="font-family: arial, helvetica, sans-serif" stroke="none" fill="#7F0000">
<g font-size="86.580000" stroke="none" fill="#7F0000">
<text id="cv_158" transform="scale(1.111111 1) translate(311.97 769.6) rotate(330) " >For Demonstration Purposes Only</text>
<text id="cv_159" transform="scale(1.111111 1) translate(623.95 769.6) rotate(330) " >Tailor Made Software, Ltd</text>
</g>
</g>
<g class="WNV" id="cv_Block_WNV_23">
<g id="cvclr_160" stroke="#29A500" fill="none">
<path id="cv_161" class="ZW" d="M14.68,629.69l0,65.17M11.74,692.51l0,-60.47M17.61,629.69l0,65.17" />
</g>
<g id="cvclr_162" stroke="#808080" fill="none">
<path id="cv_163" class="ZW" d="M3.52,692.51l0,-60.47" />
</g>
</g>
<g class="WNH" id="cv_Block_WNH_24">
<g id="cvclr_164" stroke="#808080" fill="none">
<path id="cv_165" class="ZW" d="M168.21,954.66h-65.76" />
</g>
<g id="cvclr_166" stroke="#29A500" fill="none">
<path id="cv_167" class="ZW" d="M170.56,943.51h-70.45M168.21,946.44h-65.76M170.56,940.57h-70.45" />
</g>
</g>
<g class="WNH" id="cv_Block_WNH_25">
<g id="cvclr_168" stroke="#808080" fill="none">
<path id="cv_169" class="ZW" d="M38.75,874.81l0,-65.76" />
</g>
<g id="cvclr_170" stroke="#29A500" fill="none">
<path id="cv_171" class="ZW" d="M49.91,877.16l0,-70.45M46.97,874.81l0,-65.76M52.84,877.16l0,-70.45" />
</g>
</g>
<g class="WNH" id="cv_Block_WNH_26">
<g id="cvclr_172" stroke="#808080" fill="none">
<path id="cv_173" class="ZW" d="M273.31,954.66h-65.76" />
</g>
<g id="cvclr_174" stroke="#29A500" fill="none">
<path id="cv_175" class="ZW" d="M275.65,943.51h-70.45M273.31,946.44h-65.76M275.65,940.57h-70.45" />
</g>
</g>
<g class="WNV" id="cv_Block_WNV_27">
<g id="cvclr_176" stroke="#29A500" fill="none">
<path id="cv_177" class="ZW" d="M14.68,595.05l0,-65.17M11.74,532.23l0,60.47M17.61,595.05l0,-65.17" />
</g>
<g id="cvclr_178" stroke="#808080" fill="none">
<path id="cv_179" class="ZW" d="M3.52,532.23l0,60.47" />
</g>
</g>
<g class="WNV" id="cv_Block_WNV_28">
<g id="cvclr_180" stroke="#29A500" fill="none">
<path id="cv_181" class="ZW" d="M14.68,529.88l0,65.17M11.74,592.7l0,-60.47M17.61,529.88l0,65.17" />
</g>
<g id="cvclr_182" stroke="#808080" fill="none">
<path id="cv_183" class="ZW" d="M3.52,592.7l0,-60.47" />
</g>
</g>
<g class="WNH" id="cv_Block_WNH_29">
<g id="cvclr_184" stroke="#808080" fill="none">
<path id="cv_185" class="ZW" d="M273.31,170.27h-65.76" />
</g>
<g id="cvclr_186" stroke="#29A500" fill="none">
<path id="cv_187" class="ZW" d="M275.65,181.42h-70.45M273.31,178.49h-65.76M275.65,184.36h-70.45" />
</g>
</g>
<g class="WNH" id="cv_Block_WNH_30">
<g id="cvclr_188" stroke="#808080" fill="none">
<path id="cv_189" class="ZW" d="M435.94,86.89h-65.76" />
</g>
<g id="cvclr_190" stroke="#29A500" fill="none">
<path id="cv_191" class="ZW" d="M438.29,98.05h-70.45M435.94,95.11h-65.76M438.29,100.99h-70.45" />
</g>
</g>
<g class="WNH" id="cv_Block_WNH_31">
<g id="cvclr_192" stroke="#808080" fill="none">
<path id="cv_193" class="ZW" d="M541.03,86.89h-65.76" />
</g>
<g id="cvclr_194" stroke="#29A500" fill="none">
<path id="cv_195" class="ZW" d="M543.38,98.05h-70.45M541.03,95.11h-65.76M543.38,100.99h-70.45" />
</g>
</g>
<g class="WNV" id="cv_Block_WNV_32">
<g id="cvclr_196" stroke="#29A500" fill="none">
<path id="cv_197" class="ZW" d="M1718.51,620.3l0,65.17M1721.44,683.12l0,-60.47M1715.57,620.3l0,65.17" />
</g>
<g id="cvclr_198" stroke="#808080" fill="none">
<path id="cv_199" class="ZW" d="M1729.66,683.12l0,-60.47" />
</g>
</g>
<g class="WNH" id="cv_Block_WNH_33">
<g id="cvclr_200" stroke="#808080" fill="none">
<path id="cv_201" class="ZW" d="M1462.23,931.18h65.76" />
</g>
<g id="cvclr_202" stroke="#29A500" fill="none">
<path id="cv_203" class="ZW" d="M1459.88,920.02h70.45M1462.23,922.96h65.76M1459.88,917.09h70.45" />
</g>
</g>
<g class="WNH" id="cv_Block_WNH_34">
<g id="cvclr_204" stroke="#808080" fill="none">
<path id="cv_205" class="ZW" d="M1567.32,931.18h65.76" />
</g>
<g id="cvclr_206" stroke="#29A500" fill="none">
<path id="cv_207" class="ZW" d="M1564.98,920.02h70.45M1567.32,922.96h65.76M1564.98,917.09h70.45" />
</g>
</g>
<g class="WNH" id="cv_Block_WNH_35">
<g id="cvclr_208" stroke="#808080" fill="none">
<path id="cv_209" class="ZW" d="M1694.44,794.96l0,65.76" />
</g>
<g id="cvclr_210" stroke="#29A500" fill="none">
<path id="cv_211" class="ZW" d="M1683.28,792.62l0,70.45M1686.22,794.96l0,65.76M1680.34,792.62l0,70.45" />
</g>
</g>
<g class="WNH" id="cv_Block_WNH_36">
<g id="cvclr_212" stroke="#808080" fill="none">
<path id="cv_213" class="ZW" d="M1299.6,98.64h65.76" />
</g>
<g id="cvclr_214" stroke="#29A500" fill="none">
<path id="cv_215" class="ZW" d="M1297.25,109.79h70.45M1299.6,106.86h65.76M1297.25,112.73h70.45" />
</g>
</g>
<g class="WNH" id="cv_Block_WNH_37">
<g id="cvclr_216" stroke="#808080" fill="none">
<path id="cv_217" class="ZW" d="M899.77,3.52h65.76" />
</g>
<g id="cvclr_218" stroke="#29A500" fill="none">
<path id="cv_219" class="ZW" d="M897.42,14.68h70.45M899.77,11.74h65.76M897.42,17.61h70.45" />
</g>
</g>
<g class="WNH" id="cv_Block_WNH_38">
<g id="cvclr_220" stroke="#808080" fill="none">
<path id="cv_221" class="ZW" d="M707.19,7.05h-65.76" />
</g>
<g id="cvclr_222" stroke="#29A500" fill="none">
<path id="cv_223" class="ZW" d="M709.54,18.2h-70.45M707.19,15.27h-65.76M709.54,21.14h-70.45" />
</g>
</g>
<g class="WNH" id="cv_Block_WNH_39">
<g id="cvclr_224" stroke="#808080" fill="none">
<path id="cv_225" class="ZW" d="M833.42,3.52h-65.76" />
</g>
<g id="cvclr_226" stroke="#29A500" fill="none">
<path id="cv_227" class="ZW" d="M835.77,14.68h-70.45M833.42,11.74h-65.76M835.77,17.61h-70.45" />
</g>
</g>
<g class="WNH" id="cv_Block_WNH_40">
<g id="cvclr_228" stroke="#808080" fill="none">
<path id="cv_229" class="ZW" d="M1026,7.05h65.76" />
</g>
<g id="cvclr_230" stroke="#29A500" fill="none">
<path id="cv_231" class="ZW" d="M1023.65,18.2h70.45M1026,15.27h65.76M1023.65,21.14h70.45" />
</g>
</g>
<g class="WNH" id="cv_Block_WNH_41">
<g id="cvclr_232" stroke="#808080" fill="none">
<path id="cv_233" class="ZW" d="M1194.5,98.64h65.76" />
</g>
<g id="cvclr_234" stroke="#29A500" fill="none">
<path id="cv_235" class="ZW" d="M1192.15,109.79h70.45M1194.5,106.86h65.76M1192.15,112.73h70.45" />
</g>
</g>
<g class="WNV" id="cv_Block_WNV_42">
<g id="cvclr_236" stroke="#29A500" fill="none">
<path id="cv_237" class="ZW" d="M1718.51,504.63l0,-65.17M1721.44,441.81l0,60.47M1715.57,504.63l0,-65.17" />
</g>
<g id="cvclr_238" stroke="#808080" fill="none">
<path id="cv_239" class="ZW" d="M1729.66,441.81l0,60.47" />
</g>
</g>
<g class="WNV" id="cv_Block_WNV_43">
<g id="cvclr_240" stroke="#29A500" fill="none">
<path id="cv_241" class="ZW" d="M1718.51,595.05l0,-65.17M1721.44,532.23l0,60.47M1715.57,595.05l0,-65.17" />
</g>
<g id="cvclr_242" stroke="#808080" fill="none">
<path id="cv_243" class="ZW" d="M1729.66,532.23l0,60.47" />
</g>
</g>
<g class="WNV" id="cv_Block_WNV_44">
<g id="cvclr_244" stroke="#29A500" fill="none">
<path id="cv_245" class="ZW" d="M1718.51,529.88l0,65.17M1721.44,592.7l0,-60.47M1715.57,529.88l0,65.17" />
</g>
<g id="cvclr_246" stroke="#808080" fill="none">
<path id="cv_247" class="ZW" d="M1729.66,592.7l0,-60.47" />
</g>
</g>
<g class="WNH" id="cv_Block_WNH_45">
<g id="cvclr_248" stroke="#808080" fill="none">
<path id="cv_249" class="ZW" d="M1694.44,329.96l0,-65.76" />
</g>
<g id="cvclr_250" stroke="#29A500" fill="none">
<path id="cv_251" class="ZW" d="M1683.28,332.31l0,-70.45M1686.22,329.96l0,-65.76M1680.34,332.31l0,-70.45" />
</g>
</g>
<g class="WNH" id="cv_Block_WNH_46">
<g id="cvclr_252" stroke="#808080" fill="none">
<path id="cv_253" class="ZW" d="M1462.23,193.75h65.76" />
</g>
<g id="cvclr_254" stroke="#29A500" fill="none">
<path id="cv_255" class="ZW" d="M1459.88,204.91h70.45M1462.23,201.97h65.76M1459.88,207.84h70.45" />
</g>
</g>
<g class="WNH" id="cv_Block_WNH_47">
<g id="cvclr_256" stroke="#808080" fill="none">
<path id="cv_257" class="ZW" d="M1567.32,193.75h65.76" />
</g>
<g id="cvclr_258" stroke="#29A500" fill="none">
<path id="cv_259" class="ZW" d="M1564.98,204.91h70.45M1567.32,201.97h65.76M1564.98,207.84h70.45" />
</g>
</g>
</g>
<g id="layer_RM_24_" class="layer_RM_24_"  cvjs:layerName="RM$" cvjs:plottable="YES"
 cvjs:status="ON" visibility="visible">
<g id="cvclr_260" stroke="#007CA5" fill="none">
<path id="cv_261" class=" ZW" d="M965.23,480.27V361.67h56.36V480.27h-56.36M676.37,756.21H436.82v26.42H605.91v7.05h70.45v-33.47M965.23,361.67h-84.55v42.27h-10.57v76.33h95.11V361.67M327.61,403.94h-10.57v-21.14h-28.18v97.46h38.75v-76.33M232.5,583.6h-46.97v98.64h46.97v-98.64M185.53,614.13H17.61v99.52h16.44v14.38h18.79v28.18h25.83v-14.09H232.5v-59.89h-46.97v-68.11M232.5,456.78H66.92l-49.31,49.31V614.13H185.53v-30.53h46.97V456.78M232.5,382.8h-35.81v7.05H78.67v7.05h-44.62v14.38h-16.44v94.81l49.31,-49.31H232.5v-73.98M196.69,184.36H88.95v3.52h-36.11V396.89h25.83v-7.05H196.69V184.36M976.38,480.27H288.86v-97.46h-56.36V742.12h56.36v-97.46H890.08v2.35h83.96v-84.55h2.35v-82.2M465,480.27V368.71H345.23v-7.05h-28.18v42.27h10.57v76.33H465M598.87,480.27v-76.33h14.09v-42.27h-28.18v7.05H465V480.27H598.87M732.73,480.27V368.71H612.96v35.23h-14.09v76.33H732.73M870.12,480.27v-76.33h10.57v-42.27h-28.18v7.05H732.73V480.27H870.12M732.73,756.21V644.66H890.08V745.65h-9.39v17.61h-28.18v-7.05H732.73M598.87,644.66H732.73V756.21H598.87V644.66M465,644.66H598.87V756.21H465V644.66M327.61,644.66v76.33h17.61v35.23H465V644.66H327.61M676.37,331.14h-70.45v30.53h7.05v7.05h63.41v-37.58M1134.32,647.11v-84.64H974.04V745.65H1116.71v14.09h32.88v-35.23h-15.27v-77.4M1169.49,647.11h-35.17v77.4h15.27v4.7h19.91v-82.1M345.23,720.99h-17.61v-76.33h-38.75v97.46h28.18v21.14h28.18v-42.27" />
</g>
<g style="font-family: arial, helvetica, sans-serif" stroke="none" fill="#7F0000">
<g font-size="86.580000" stroke="none" fill="#7F0000">
<text id="cv_262" transform="scale(1.111111 1) translate(311.97 769.6) rotate(330) " >For Demonstration Purposes Only</text>
<text id="cv_263" transform="scale(1.111111 1) translate(623.95 769.6) rotate(330) " >Tailor Made Software, Ltd</text>
</g>
</g>
</g>
<g id="layer_PL_2D_ELVTR_block" class="layer_PL_2D_ELVTR_block"  cvjs:layerName="PL-ELVTR" cvjs:plottable="YES"
 cvjs:status="ON" visibility="visible">
<g class="ELEV" id="cv_Block_ELEV_48">
<g id="cvclr_264" stroke="#29A500" fill="none">
<path id="cv_265" class=" ZW" d="M478.8,736.25v-77.5h98.64v77.5h-98.64" />
<path id="cv_266" class="ZW" d="M577.44,658.75l-98.64,77.5M478.8,658.75l98.64,77.5" />
</g>
</g>
<g class="ELEV" id="cv_Block_ELEV_49">
<g id="cvclr_267" stroke="#29A500" fill="none">
<path id="cv_268" class=" ZW" d="M478.8,388.71v77.5h98.64v-77.5h-98.64" />
<path id="cv_269" class="ZW" d="M577.44,466.21l-98.64,-77.5M478.8,466.21l98.64,-77.5" />
</g>
</g>
<g class="ELEV" id="cv_Block_ELEV_50">
<g id="cvclr_270" stroke="#29A500" fill="none">
<path id="cv_271" class=" ZW" d="M352.57,736.25v-77.5h98.64v77.5h-98.64" />
<path id="cv_272" class="ZW" d="M451.2,658.75l-98.64,77.5M352.57,658.75l98.64,77.5" />
</g>
</g>
<g class="ELEV" id="cv_Block_ELEV_51">
<g id="cvclr_273" stroke="#29A500" fill="none">
<path id="cv_274" class=" ZW" d="M352.57,388.71v77.5h98.64v-77.5h-98.64" />
<path id="cv_275" class="ZW" d="M451.2,466.21l-98.64,-77.5M352.57,466.21l98.64,-77.5" />
</g>
</g>
<g class="ELEV" id="cv_Block_ELEV_52">
<g id="cvclr_276" stroke="#29A500" fill="none">
<path id="cv_277" class=" ZW" d="M620.3,736.25v-77.5h98.64v77.5h-98.64" />
<path id="cv_278" class="ZW" d="M718.93,658.75l-98.64,77.5M620.3,658.75l98.64,77.5" />
</g>
</g>
<g class="ELEV" id="cv_Block_ELEV_53">
<g id="cvclr_279" stroke="#29A500" fill="none">
<path id="cv_280" class=" ZW" d="M746.53,736.25v-77.5h98.64v77.5h-98.64" />
<path id="cv_281" class="ZW" d="M845.16,658.75l-98.64,77.5M746.53,658.75l98.64,77.5" />
</g>
</g>
<g class="ELEV" id="cv_Block_ELEV_54">
<g id="cvclr_282" stroke="#29A500" fill="none">
<path id="cv_283" class=" ZW" d="M620.3,388.71v77.5h98.64v-77.5h-98.64" />
<path id="cv_284" class="ZW" d="M718.93,466.21l-98.64,-77.5M620.3,466.21l98.64,-77.5" />
</g>
</g>
<g class="ELEV" id="cv_Block_ELEV_55">
<g id="cvclr_285" stroke="#29A500" fill="none">
<path id="cv_286" class=" ZW" d="M746.53,388.71v77.5h98.64v-77.5h-98.64" />
<path id="cv_287" class="ZW" d="M845.16,466.21l-98.64,-77.5M746.53,466.21l98.64,-77.5" />
</g>
</g>
</g>
</g></svg>